<svg height='300px' width='300px' fill="#ffffff" xmlns="http://www.w3.org/2000/svg"
     style="background-color:#bf5700;"
     xmlns:xlink="http://www.w3.org/1999/xlink" version="1.1" x="0px" y="0px" viewBox="0 0 100 100"
     enable-background="new 0 0 100 100" xml:space="preserve"><g>
    <ellipse cx="51.7" cy="44.2" rx="1.6" ry="1.7"></ellipse>
    <ellipse
        cx="56.2" cy="44.2" rx="1.6" ry="1.7"></ellipse>
    <ellipse cx="67.6" cy="55.4" rx="1.6" ry="1.7"></ellipse>
    <ellipse
        cx="72.1" cy="55.4" rx="1.6" ry="1.7"></ellipse>
    <path
        d="M92.8,25.6c-5.6-4.3-17-3.9-20.5-1.2L71.5,25c-3.6,2.8-8.7,6.7-15.4,6.7l0.7,0.3c-0.6-0.4-1.3-0.6-2-0.6H44   c-0.7,0-1.3,0.2-1.8,0.5c-6.1-0.4-10.9-4-14.4-6.8L27,24.6c-3.4-2.7-14.9-3.1-20.5,1.2l-2.6,2l3.2-0.4c7.6-0.9,13.7-0.1,16.3,2.1   c0.8,0.7,1.6,1.4,2.3,2.1c2.4,2.2,4.6,4.2,7.4,5.7c-1.5,0.3-2.9,1-4.3,2.2c-4.2,3.8-2.1,12.6-2,13l0.1,0.5l0.4,0.2   c0.1,0,1.5,0.5,3.4,0.5c1.1,0,2.3-0.2,3.5-0.6c0.3,2.8,1.2,5.4,2.7,7.8c2.8,4.6,7.4,7.6,13.3,8.8c2.3,0.5,4.8,0.7,7.2,0.7   c7.2,0,14.3-2,18.1-5.6c2.3-2.1,3.3-4.6,3-7.3c-0.9-6.6-3.2-8.8-6.1-10.2l0.7-1.2L73,45.8c-1.1-4.4-3.9-7.2-8.1-8.1   c3.6-1.6,6.4-4.1,9.2-6.8c0.6-0.5,1.2-1.1,1.8-1.6c2.6-2.3,8.7-3,16.3-2.1l3.2,0.4L92.8,25.6z M54.8,33.4c1.2,0,2.2,1,2.2,2.2v0.5   c0,1.2-1,2.2-2.2,2.2H44c-1.2,0-2.2-1-2.2-2.2v-0.5c0-1.2,1-2.2,2.2-2.2H54.8z M24.7,28.3c-3-2.6-8.7-3.1-13.1-2.9   C17,23.7,24,24.5,26,26.1l0.7,0.6c3.3,2.6,7.8,6.1,13.8,6.9c-0.3,0.6-0.5,1.2-0.5,1.9V36c0,0.6,0.1,1.1,0.4,1.6c0,0,0,0,0,0   c-0.9-0.2-1.9-0.4-2.8-0.5c-4.5-1.3-7.3-3.9-10.5-6.8C26.3,29.7,25.5,29,24.7,28.3z M28.3,51.6c-0.4-1.9-1.3-8.1,1.6-10.8   c2.1-1.9,4.7-2.1,7.4-1.9c0.4,0.1,0.7,0.2,1.1,0.3c-2.3,2.4-3.4,5.7-3.7,6.9c-0.4,1.7-0.6,3.4-0.6,5.1   C31.8,52.2,29.3,51.8,28.3,51.6z M38.4,60.1c-2.5-4-3.2-8.9-2-13.5c0.6-2.4,2.1-5.4,4.3-7c0.5,0.1,1.1,0.1,1.7,0.1l0,0   c0.5,0.2,1,0.3,1.6,0.3h10.8c0.6,0,1.2-0.2,1.8-0.4c0,0,0,0,0,0l0,0c0,0,0.1,0,0.1,0c0.5,0,0.9-0.1,1.4-0.1   c0.5,0.4,0.9,0.8,1.3,1.4c0.3,0.3,0.5,0.7,0.8,1c1.9,2.2,3.8,3.6,5.6,4.5c-3.2,1.2-5.7,3.2-7.5,6.1c-2.7,4.4-3.2,10.2-1.4,16.3   c-2.1,0-4.2-0.2-6.3-0.7C45.2,67,40.9,64.2,38.4,60.1z M76.8,57.8c0.3,2.1-0.5,4.1-2.4,5.8c-3.4,3.2-9.7,5-16.2,5.2l0.5-0.2   c-1.7-5.8-1.3-11.2,1.1-15.2c1.8-3.1,4.7-5.1,8.3-5.9c0.4,0.2,0.9,0.3,1.3,0.5C73.2,49.5,75.9,50.5,76.8,57.8z M71.2,45.8l-0.5,0.8   c-0.2-0.1-0.5-0.2-0.7-0.3c-2.6-1-5.6-2.1-8.5-5.6c-0.3-0.3-0.5-0.6-0.7-0.9c-0.2-0.2-0.3-0.5-0.5-0.7c0.1,0,0.2,0,0.3-0.1   C64.6,38.9,69.6,39.9,71.2,45.8z M74.7,28.1c-0.6,0.5-1.2,1.1-1.8,1.6c-3.8,3.5-7.2,6.5-12.9,7.6c-0.5,0-1,0.1-1.5,0.2   c0.2-0.5,0.3-1,0.3-1.5v-0.5c0-0.7-0.2-1.4-0.6-2c6.2-0.6,10.9-4.3,14.4-7l0.8-0.6c2.1-1.5,9-2.3,14.4-0.7   C83.3,25.1,77.7,25.5,74.7,28.1z"></path>
</g>
</svg>

